<svg xmlns="http://www.w3.org/2000/svg" viewBox="0 0 24 24" xmlns:v="https://vecta.io/nano"><path d="M19.27 5.33C17.94 4.71 16.5 4.26 15 4a.09.09 0 0 0-.07.03l-.53 1.09a16.09 16.09 0 0 0-4.8 0c-.14-.34-.35-.76-.54-1.09-.01-.02-.04-.03-.07-.03a17.11 17.11 0 0 0-4.27 1.33c-.01 0-.02.01-.03.02-2.72 4.07-3.47 8.03-3.1 11.95 0 .02.01.04.03.05A17.37 17.37 0 0 0 6.86 20c.03.01.06 0 .07-.02.4-.55.76-1.13 1.07-1.74.02-.04 0-.08-.04-.09a12.31 12.31 0 0 1-1.64-.78c-.04-.02-.04-.08-.01-.11.11-.08.22-.17.33-.25.02-.02.05-.02.07-.01 3.44 1.57 7.15 1.57 10.55 0 .02-.01.05-.01.07.01.11.09.22.17.33.26.04.03.04.09-.01.11-.52.31-1.07.56-1.64.78-.04.01-.05.06-.04.09a15.29 15.29 0 0 0 1.07 1.74c.03.01.06.02.09.01a17.3 17.3 0 0 0 5.25-2.65c.02-.01.03-.03.03-.05.44-4.53-.73-8.46-3.1-11.95-.01-.01-.02-.02-.04-.02zM8.52 14.91c-1.03 0-1.89-.95-1.89-2.12s.84-2.12 1.89-2.12c1.06 0 1.9.96 1.89 2.12 0 1.17-.84 2.12-1.89 2.12zm6.97 0c-1.03 0-1.89-.95-1.89-2.12s.84-2.12 1.89-2.12c1.06 0 1.9.96 1.89 2.12 0 1.17-.83 2.12-1.89 2.12z"/></svg>